<svg xmlns="http://www.w3.org/2000/svg" xmlns:xlink="http://www.w3.org/1999/xlink" width="4681" height="1934" viewBox="0 0 4681 1934">
  <metadata><?xpacket begin="﻿" id="W5M0MpCehiHzreSzNTczkc9d"?>
<x:xmpmeta xmlns:x="adobe:ns:meta/" x:xmptk="Adobe XMP Core 5.6-c142 79.160924, 2017/07/13-01:06:39        ">
   <rdf:RDF xmlns:rdf="http://www.w3.org/1999/02/22-rdf-syntax-ns#">
      <rdf:Description rdf:about=""/>
   </rdf:RDF>
</x:xmpmeta>
                                                                                                    
                                                                                                    
                                                                                                    
                                                                                                    
                                                                                                    
                                                                                                    
                                                                                                    
                                                                                                    
                                                                                                    
                                                                                                    
                                                                                                    
                                                                                                    
                                                                                                    
                                                                                                    
                                                                                                    
                                                                                                    
                                                                                                    
                                                                                                    
                                                                                                    
                                                                                                    
                           
<?xpacket end="w"?></metadata>
<defs>
    <style>
      .cls-1 {
        fill: #fff;
        fill-rule: evenodd;
        filter: url(#filter);
      }
    </style>
    <filter id="filter" x="54" y="38.75" width="4581" height="1844.25" filterUnits="userSpaceOnUse">
      <feOffset result="offset" dx="0.262" dy="4.993" in="SourceAlpha"/>
      <feGaussianBlur result="blur" stdDeviation="1"/>
      <feFlood result="flood" flood-color="#161616"/>
      <feComposite result="composite" operator="in" in2="blur"/>
      <feBlend result="blend" in="SourceGraphic"/>
      <feGaussianBlur result="blur-2" stdDeviation="2.646" in="SourceAlpha"/>
      <feFlood result="flood-2" flood-opacity="0.96"/>
      <feComposite result="composite-2" operator="out" in2="blur-2"/>
      <feOffset result="offset-2" dy="10"/>
      <feComposite result="composite-3" operator="in" in2="SourceAlpha"/>
      <feBlend result="blend-2" mode="multiply" in2="blend"/>
    </filter>
  </defs>
  <path id="Pacheco_Studios" data-name="Pacheco Studios" class="cls-1" d="M416.145,266.21c0,121.1-129.525,106.358-203.238,107.411-3.16-3.159-7.372-4.212-9.478-7.371-1.053-13.69-11.583-89.51-11.583-123.207,0-7.372,1.053-38.963,4.212-55.812,23.167-3.159,67.395-10.53,75.82-10.53C296.1,176.7,416.145,193.549,416.145,266.21Zm135.844,2.106c0-88.456-22.114-168.488-153.745-197.974-25.274-5.265-85.3-15.8-92.669-15.8-8.424,0-24.22,5.265-33.7,2.106-28.433-7.371-115.836,8.424-132.685,8.424-8.424,0-44.228-7.371-52.652-7.371s-16.849,3.159-22.114,7.371C56,109.305,56,191.443,56,198.815c0,8.424-1.053,88.456,4.212,129.525,1.053,9.477,6.319,18.955,6.319,27.379V463.13c0,122.154-1.053,29.486,7.371,275.9,0,10.53,3.159,28.432,3.159,42.122h103.2c28.432-8.425,8.425-42.122,8.425-58.971v-136.9c0-8.424,6.318-60.024,7.371-90.562,9.477-10.531,18.955-12.637,26.326-12.637s81.085,16.849,88.456,16.849C403.509,498.934,551.989,392.576,551.989,268.316ZM980.563,567.382c-45.281,2.106-106.358-5.265-146.374-3.159,33.7-60.024,37.91-128.472,67.4-195.867,15.795,31.591,31.591,71.607,41.069,103.2C952.131,501.04,966.874,535.791,980.563,567.382ZM1198.54,774.833c-75.81-171.647-127.41-325.392-180.07-468.607-15.79-41.069-47.384-96.881-57.914-126.366-11.584-30.539-17.9-70.555-30.539-97.934-5.265-11.583-20.008-28.432-28.432-32.644-17.9,42.122-36.857,92.669-51.6,123.207-24.22,50.547-66.342,115.836-74.766,144.268-41.069,130.579-96.881,327.5-162.17,458.077H748.892c13.69-27.379,10.531-67.395,34.751-82.138,33.7-21.061,112.676-2.106,247.467-5.265,9.48,28.433,22.11,63.183,37.91,87.4h129.52Zm716.08-169.541c-31.6-16.849-65.29-31.591-92.67-46.334C1794.57,625.3,1684,667.422,1628.19,667.422c-104.26,0-265.37-94.774-265.37-228.512,0-36.857,17.9-115.835,25.27-125.313,90.56-118.995,140.06-142.162,227.46-142.162,8.42,0,77.93,2.106,104.25,11.584,36.86,12.636,73.71,62.13,81.09,62.13,23.16,0,87.4-49.494,110.57-46.334-7.37-7.372-14.75-14.743-16.85-23.168-22.12-72.66-132.69-136.9-197.98-136.9-9.47,0-109.51,8.424-161.11,18.955-17.9,3.159-35.81,20.008-52.66,25.273-40.01,12.637-83.19,27.379-126.36,58.971-85.3,60.024-87.4,133.737-92.67,191.655-3.16,31.592-16.85,86.35-16.85,94.775,0,26.326,41.07,157.957,67.4,206.4,15.79,28.432,88.45,88.456,105.3,94.774,120.05,42.122,147.43,38.963,210.61,38.963,9.48,0,54.76,2.106,63.19-1.053C1756.66,744.3,1896.71,708.491,1914.62,605.292ZM2539.06,176.7c0-8.425-2.1-64.237-4.21-94.775-1.05-8.424-5.26-21.061-9.48-26.326-13.69-5.265-34.75-5.265-42.12-5.265-9.47,0-44.23,4.212-57.92,4.212-4.21,40.016-4.21,82.138-5.26,118.994-1.05,17.9-12.64,50.547-12.64,61.077,0,36.857,7.37,96.881,5.27,124.26-2.11,4.213-4.21,3.159-7.37,6.319-30.54-1.053-66.35,1.053-93.72-1.053-44.23-4.213-128.48-15.8-135.85-15.8s-26.32,3.159-33.7,3.159c-43.17,0-42.12-4.212-42.12-69.5,0-8.425,13.69-132.685,13.69-141.109V54.547a111.574,111.574,0,0,0-30.54-4.212c-100.04,0-97.93-10.531-97.93,74.767,0,8.424,20.01,226.406,20.01,234.83,0,98.987-24.22,260.1-24.22,262.21,0,8.424,11.58,44.228,15.79,62.13,5.27,24.22,3.16,54.759,2.11,82.138,6.32,6.318,17.9,14.743,25.27,13.69h82.14c23.17-73.714,12.64-140.056,7.37-282.218,0-9.477,2.11-18.955,8.43-23.167,82.13,1.053,214.82-5.265,223.24-5.265,38.97,0,65.29-13.69,65.29,44.228,0,8.424-16.85,184.284-16.85,192.708,0,22.114-1.05,63.183,14.75,70.554,25.27-2.106,84.24-12.636,90.56-12.636,8.42,0,9.48,2.106,26.32,2.106,4.22-80.032-9.47-173.753-9.47-241.149C2515.9,516.836,2539.06,185.125,2539.06,176.7ZM3121.39,64.024c-86.35-5.265-245.36-15.8-253.78-15.8s-163.23,14.743-241.15,24.22c0,30.539-7.37,88.457-7.37,95.828,0,8.425,9.47,318.021,12.63,473.873,0,32.645-10.53,94.775-8.42,125.313,3.16,3.159,4.21,7.371,9.48,10.531h483.35v-17.9c0-8.425-8.43-16.849-9.48-24.22-2.11-20.008-1.05-43.176-5.27-57.918-12.63-3.159-27.37-7.372-37.91-7.372-148.48-6.318-212.71,0-221.14,0-6.31,0-84.24-6.318-97.93-18.955,28.43-202.185-22.11-184.283,143.22-184.283,8.42,0,101.09,13.689,109.51,13.689h101.1c13.69-9.477,14.74-50.546,14.74-65.289,0-8.424,0-35.8-4.21-50.546l3.16-4.213c-88.46,4.213-151.64,5.266-160.07,5.266s-89.51-6.319-97.93-6.319-78.98,9.478-87.41,9.478c-6.31,0-25.27-10.531-25.27-23.167,0-8.425,6.32-12.637,6.32-18.955,1.05-42.122,1.05-101.093,9.48-143.215,54.76-16.849,64.23-13.69,102.14-13.69l206.4,6.319C3143.51,176.7,3117.18,161.958,3121.39,64.024Zm731.86,541.268c-31.59-16.849-65.29-31.591-92.67-46.334-27.38,66.342-137.95,108.464-193.76,108.464-104.25,0-265.37-94.774-265.37-228.512,0-36.857,17.9-115.835,25.27-125.313,90.57-118.995,140.06-142.162,227.46-142.162,8.43,0,77.93,2.106,104.25,11.584,36.86,12.636,73.72,62.13,81.09,62.13,23.17,0,87.4-49.494,110.57-46.334-7.37-7.372-14.74-14.743-16.85-23.168-22.11-72.66-132.68-136.9-197.97-136.9-9.48,0-109.52,8.424-161.12,18.955-17.9,3.159-35.8,20.008-52.65,25.273-40.02,12.637-83.19,27.379-126.37,58.971-85.3,60.024-87.4,133.737-92.67,191.655-3.16,31.592-16.85,86.35-16.85,94.775,0,26.326,41.07,157.957,67.4,206.4,15.8,28.432,88.46,88.456,105.3,94.774,120.05,42.122,147.43,38.963,210.61,38.963,9.48,0,54.76,2.106,63.19-1.053C3695.29,744.3,3835.35,708.491,3853.25,605.292Zm659.2-179.018c0,89.509-92.67,234.83-208.51,234.83-66.34,0-186.39-43.175-244.3-146.374-3.16-5.265-36.86-69.5-36.86-85.3,0-58.971,87.4-229.565,160.06-231.671,11.59-5.266,34.75-9.478,45.28-9.478,7.38,0,90.57,4.212,127.42,8.425,11.59,1.053,32.65,12.636,45.28,17.9,29.49,11.584,53.71,51.6,61.08,74.767,5.27,20.008,25.27,40.016,34.75,62.13C4507.18,374.674,4512.45,417.849,4512.45,426.274Zm120.05-41.069c0-50.547-3.16-60.024-31.6-129.526C4561.94,164.064,4442.95,90.35,4379.76,66.13c-25.27-10.531-95.82-15.8-103.2-15.8-63.18,0-142.16,45.281-190.6,70.555-56.86,30.538-101.09,103.2-122.15,144.268-33.7,63.183-44.23,100.04-44.23,140.056,0,45.281,27.38,162.169,38.96,188.5,18.96,43.175,55.81,61.077,92.67,96.88,9.48,8.425,24.22,11.584,30.54,18.955,58.97,63.183,103.2,68.449,152.69,68.449C4469.27,777.993,4632.5,636.884,4632.5,385.205ZM905.288,1636.82c0-8.42-2.106-43.17-8.424-57.91-8.424-21.07-50.546-69.51-76.873-80.04-18.955-7.37-36.857-17.9-52.652-21.06-12.637-3.16-30.539-1.05-36.857-5.26-30.539-20.01-153.745-13.69-153.745-93.72,0-34.76,30.538-101.1,91.615-101.1,23.167,0,58.971,12.64,75.82,33.7,18.955,24.22,38.962,52.65,50.546,55.81,21.061,6.32,68.448,17.9,75.82,17.9,11.583,0,21.061-25.27,21.061-41.07,0-67.39-130.579-199.02-197.974-199.02-78.979,0-270.634,41.07-270.634,199.02,0,37.91,14.743,164.28,78.979,184.29,12.637,3.16,31.592,1.05,37.91,5.26,80.032,46.34,219.034,8.43,219.034,134.79,0,41.07-65.289,90.57-111.623,90.57-43.175,0-103.2-22.12-95.828-91.62-18.954-14.74-104.252-47.39-108.464-47.39-12.637,0-23.167,42.13-23.167,48.44,0,28.44,20.008,51.6,26.326,68.45,47.388,116.89,182.178,137.95,281.165,137.95,8.424,0,34.75,2.11,44.228-1.05C853.689,1843.22,905.288,1712.64,905.288,1636.82Zm572.852-424.38c0-12.63-7.37-53.7-14.74-71.6-54.76,4.21-163.22,7.37-170.59,7.37-8.43,0-253.79-10.53-263.27-10.53-15.79,0-54.756,15.79-54.756,44.22v76.88c21.061,3.16,50.546,11.58,58.976,11.58s62.13-10.53,70.55-10.53c10.53,0,52.65,1.05,56.86,12.64,11.59,38.96,14.75,127.42,14.75,134.79,0,89.51-16.85,47.39-3.16,269.58,3.16,50.55-4.21,65.29-3.16,77.92,5.26,41.07,0,81.09,6.32,112.68,35.8-3.16,62.13-4.21,117.94-1.05-13.69-6.32,0-60.03,0-75.82V1559.95c0-7.37-10.53-61.08-9.48-86.35,2.11-48.44,10.53-134.79,10.53-201.13,15.8-15.8,43.18-12.64,58.97-12.64,8.43,0,93.72,3.16,102.15,3.16C1477.09,1262.99,1478.14,1222.97,1478.14,1212.44Zm641.3-65.29c-40.02-1.05-82.14-4.21-130.58-8.42,7.37,25.27,3.16,55.81,7.37,89.51,7.37,57.92-8.43,141.11-8.43,157.96v212.71c0,43.18-28.43,136.9-95.82,141.11-23.17,1.05-66.34,20.01-73.72,20.01-31.59,0-57.91-20.01-87.4-41.07-11.58-8.42-31.59-17.9-36.86-28.43-14.74-29.49-17.9-82.14-17.9-90.56V1462.02c0-8.43-7.37-32.65-7.37-41.07s6.32-35.81,7.37-49.5c6.32-150.58,2.11-197.97-1.05-229.56-56.87,16.85-84.25,0-112.68,10.53-4.21-3.16-4.21-7.37-4.21-10.53-4.21,25.27-12.64,227.46-12.64,234.83,0,9.48,10.53,114.78,11.59,170.59,2.1,55.82,1.05,113.73,14.74,168.49,4.21,18.96,28.43,41.07,35.8,56.87,38.97,76.87,140.06,95.82,206.4,95.82,94.78,0,29.49,9.48,130.58-27.38,205.34-73.71,171.65-306.43,168.49-441.22C2111.01,1315.64,2121.54,1221.92,2119.44,1147.15Zm475.96,301.18c0,7.37-8.42,44.22-8.42,63.18,0,63.18-14.74,106.36-60.03,148.48-42.12,38.96-118.99,70.55-208.5,76.87-2.11-26.32-13.69-365.41-13.69-414.9,0-7.37,7.37-46.33,14.74-71.61,90.57,29.49,201.14,40.02,261.16,119C2594.35,1387.25,2595.4,1427.27,2595.4,1448.33Zm124.26,82.13c0-177.96-86.35-342.24-340.13-376.99-37.91-5.26-102.15-22.11-170.6-22.11-8.42,0-11.58,4.21-13.69,7.37-8.42,44.23-17.9,127.42-17.9,134.79,0,8.42,23.17,300.12,23.17,308.54,0,159.01-20.01,219.04-20.01,237.99v37.91h191.66c8.42,0,85.29-21.06,111.62-28.43C2699.65,1770.56,2719.66,1662.1,2719.66,1530.46Zm204.28,180.08c0-8.43-10.53-284.33-10.53-292.75V1293.53c0-8.43-5.27-27.38-6.32-40.02-2.11-22.11,5.26-55.81,5.26-74.76,0-13.69-2.1-31.6,1.06-42.13-57.92,3.16-85.3,3.16-107.41,0-3.16,2.11-8.43,10.53-8.43,14.75,0,61.07,9.48,122.15,5.27,180.07-3.16,57.92-13.69,120.05-11.59,177.96,0,18.96,7.38,46.34,5.27,64.24-4.21,37.91-12.64,105.3-12.64,111.62,0,8.43,9.48,52.66,12.64,80.04,3.16,24.22-2.11,57.91,2.11,83.19,23.16,17.9,41.06,17.9,67.39,17.9,8.43,0,35.8-1.06,50.55-4.21C2923.94,1810.58,2923.94,1717.91,2923.94,1710.54Zm670.78-196.92c0,89.51-92.67,234.83-208.51,234.83-66.34,0-186.39-43.18-244.3-146.38-3.16-5.26-36.86-69.5-36.86-85.29,0-58.98,87.4-229.57,160.06-231.68,11.59-5.26,34.75-9.47,45.28-9.47,7.38,0,90.57,4.21,127.42,8.42,11.59,1.05,32.65,12.64,45.28,17.9,29.49,11.59,53.71,51.6,61.08,74.77,5.27,20.01,25.28,40.02,34.75,62.13C3589.45,1462.02,3594.72,1505.19,3594.72,1513.62Zm120.05-41.07c0-50.55-3.16-60.03-31.6-129.53-38.96-91.61-157.95-165.33-221.14-189.55-25.27-10.53-95.82-15.79-103.2-15.79-63.18,0-142.16,45.28-190.6,70.55-56.86,30.54-101.09,103.2-122.15,144.27-33.7,63.18-44.23,100.04-44.23,140.05,0,45.29,27.38,162.17,38.96,188.5,18.96,43.18,55.82,61.08,92.67,96.88,9.48,8.43,24.22,11.59,30.54,18.96,58.97,63.18,103.2,68.44,152.69,68.44C3551.54,1865.33,3714.77,1724.23,3714.77,1472.55Zm559.16,164.27c0-8.42-2.11-43.17-8.42-57.91-8.43-21.07-50.55-69.51-76.88-80.04-18.95-7.37-36.85-17.9-52.65-21.06-12.64-3.16-30.54-1.05-36.86-5.26-30.53-20.01-153.74-13.69-153.74-93.72,0-34.76,30.54-101.1,91.61-101.1,23.17,0,58.98,12.64,75.82,33.7,18.96,24.22,38.97,52.65,50.55,55.81,21.06,6.32,68.45,17.9,75.82,17.9,11.58,0,21.06-25.27,21.06-41.07,0-67.39-130.58-199.02-197.97-199.02-78.98,0-270.64,41.07-270.64,199.02,0,37.91,14.75,164.28,78.98,184.29,12.64,3.16,31.59,1.05,37.91,5.26,80.03,46.34,219.04,8.43,219.04,134.79,0,41.07-65.29,90.57-111.63,90.57-43.17,0-103.2-22.12-95.82-91.62-18.96-14.74-104.26-47.39-108.47-47.39-12.64,0-23.17,42.13-23.17,48.44,0,28.44,20.01,51.6,26.33,68.45,47.39,116.89,182.18,137.95,281.17,137.95,8.42,0,34.75,2.11,44.22-1.05C4222.33,1843.22,4273.93,1712.64,4273.93,1636.82Z"/>
</svg>
