<svg xmlns="http://www.w3.org/2000/svg" xmlns:xlink="http://www.w3.org/1999/xlink" width="748" height="620" viewBox="0 0 748 620">
  <metadata><?xpacket begin="﻿" id="W5M0MpCehiHzreSzNTczkc9d"?>
<x:xmpmeta xmlns:x="adobe:ns:meta/" x:xmptk="Adobe XMP Core 5.6-c142 79.160924, 2017/07/13-01:06:39        ">
   <rdf:RDF xmlns:rdf="http://www.w3.org/1999/02/22-rdf-syntax-ns#">
      <rdf:Description rdf:about=""/>
   </rdf:RDF>
</x:xmpmeta>
                                                                                                    
                                                                                                    
                                                                                                    
                                                                                                    
                                                                                                    
                                                                                                    
                                                                                                    
                                                                                                    
                                                                                                    
                                                                                                    
                                                                                                    
                                                                                                    
                                                                                                    
                                                                                                    
                                                                                                    
                                                                                                    
                                                                                                    
                                                                                                    
                                                                                                    
                                                                                                    
                           
<?xpacket end="w"?></metadata>
<defs>
    <style>
      .cls-1 {
        font-size: 1387.462px;
        filter: url(#filter);
        text-anchor: middle;
        font-family: "Amatic SC";
      }

      .cls-1, .cls-2 {
        fill: #fff;
      }

      .cls-2 {
        fill-rule: evenodd;
        filter: url(#filter-2);
      }
    </style>
    <filter id="filter" x="-3029" y="4" width="2805" height="618" filterUnits="userSpaceOnUse">
      <feOffset result="offset" dx="0.262" dy="4.993" in="SourceAlpha"/>
      <feGaussianBlur result="blur" stdDeviation="1"/>
      <feFlood result="flood" flood-color="#373737"/>
      <feComposite result="composite" operator="in" in2="blur"/>
      <feBlend result="blend" in="SourceGraphic"/>
    </filter>
    <filter id="filter-2" x="21" y="4.375" width="716" height="611.625" filterUnits="userSpaceOnUse">
      <feOffset result="offset" dx="0.262" dy="4.993" in="SourceAlpha"/>
      <feGaussianBlur result="blur" stdDeviation="1"/>
      <feFlood result="flood" flood-color="#373737"/>
      <feComposite result="composite" operator="in" in2="blur"/>
      <feBlend result="blend" in="SourceGraphic"/>
    </filter>
  </defs>
  <text id="Will_H_Pacheco" data-name="Will H Pacheco" class="cls-1" transform="translate(-1620.235 594.186) scale(0.552)"><tspan x="0">Will H Pacheco</tspan></text>
  <path id="WHP" class="cls-2" d="M160.548,205.671q5.939,47.541,26.553,147.442T210.69,488.3q9.651,116.982,27.478,116.982,8.534,0,11.139-4.824c1.731-3.23,2.605-7.8,2.605-13.743V575.571q0-54.957,15.037-143.536t24.882-212.064Q301.676,96.485,306.877,52.29q2.969-11.876,2.973-16.708a11.508,11.508,0,0,0-.745-4.832q8.161-6.683,8.165-12.989a11.507,11.507,0,0,0-4.832-9.845,16.339,16.339,0,0,0-9.648-3.53q-19.69,0-19.681,18.2l0.737,14.48q0,36.038-7.986,102.511t-9.836,98.038q-1.865,31.566-11.705,108.44T242.435,459.7q-2.043,36.771-4.267,45.678l-2.228-1.491q0-80.585-31.565-197.936T172.809,103.914l3.71-10.025q0-13.367-22.654-13.367Q143.1,85.715,143.1,95.371l0.745,13.744q0,9.293-2.416,26.184t-3.9,31.009q-1.491,14.112-3.9,60.535t-3.162,56.267a232.591,232.591,0,0,1-4.267,27.11,278.822,278.822,0,0,0-4.644,29.15q-1.118,11.888-6.872,58.5T108.933,480.5h-1.491q-4.831-40.1-19.493-140.751Q73.272,239.1,70.487,209.758t-3.71-50.5q-0.925-21.168-2.416-41.967T60.094,73.831Q57.3,51.185,51.731,37.253T37.063,23.329q-9.1,0-14.669,10.025Q30.928,46.721,62.51,315.233,74.386,416.626,76.434,430.922q2.031,14.29,6.126,36.021t6.495,39.182a297.6,297.6,0,0,1,2.785,34.17Q92.212,557,92.962,569.256q0.733,7.056,2.408,16.528t5.757,14.481q4.088,5.011,9.1,5.012t9.468-4.824c2.973-3.23,4.464-5.7,4.464-7.428q0-41.218,8.722-153t15.038-141.316a283.945,283.945,0,0,0,6.683-54.966q0.372-25.434,2.982-38.068l0.737-1.483Zm76.138,303.05c0-.736.488-1.113,1.482-1.113ZM499.366,290.9l-89.127,5.938a107.167,107.167,0,0,1-2.974-26.733l0.746-30.083L401.7,85.526a479.891,479.891,0,0,1,3.342-56.456L395.013,20.9l-12.261,5.938q0,161.2,13.743,346.869,1.106,14.112,1.671,64.622t2.039,94.148q1.491,43.647,4.276,52.369t12.441,8.723q7.788,0,7.8-11.516,0-44.187-6.5-131.463t-6.5-131.471q15.963-9.279,53.851-9.288l28.97,3.719,4.824-.746q7.428,144.1,7.428,261.084l-0.745,17.453q0,16.708,10.77,16.708,5.193,0,9.468-7.24c2.845-4.832,4.276-8.782,4.276-11.884s-1.114-6.872-3.342-11.327q0-27.106-5.569-193.3t-5.57-246.038q0-79.839-3.341-97.31-3.728-20.05-18.2-20.05A62.478,62.478,0,0,0,493.051,31.3l7.06,258.11Zm154.568,27.11q3.714-4.448,13.744-8.543,31.192-12.993,51.246-71.305,15.963-46.05,15.972-90.618T708.163,60.267a100.046,100.046,0,0,0-34.736-33.048Q651.706,14.6,624.6,14.59q-12.633,0-19.681,10.77,4.82,19.69,6.683,49.019,0.36,9.292.926,27.487t2.6,72.976q2.031,54.777,2.04,139.448L623.114,437.6l-2.973,136.3q0,26.373,9.836,26.364t13-6.126q3.162-6.118,3.162-17.274l-6.315-250.3a28.384,28.384,0,0,0,14.112-8.543h0ZM643.164,36.876q1.851,1.118,15.782,11.327t21.541,16.528q7.608,6.31,18.2,20.607t12.818,29.9q2.223,15.6,2.228,41.59,0,74.648-49.4,124.035-1.491,1.491-5.2,5.578t-7.617,7.608q-3.908,3.534-11.7,4.276l-1.482-1.491L629.429,36.876h13.735Z"/>
</svg>
