<svg xmlns="http://www.w3.org/2000/svg" xmlns:xlink="http://www.w3.org/1999/xlink" width="2818" height="621" viewBox="0 0 2818 621">
  <metadata><?xpacket begin="﻿" id="W5M0MpCehiHzreSzNTczkc9d"?>
<x:xmpmeta xmlns:x="adobe:ns:meta/" x:xmptk="Adobe XMP Core 5.6-c142 79.160924, 2017/07/13-01:06:39        ">
   <rdf:RDF xmlns:rdf="http://www.w3.org/1999/02/22-rdf-syntax-ns#">
      <rdf:Description rdf:about=""/>
   </rdf:RDF>
</x:xmpmeta>
                                                                                                    
                                                                                                    
                                                                                                    
                                                                                                    
                                                                                                    
                                                                                                    
                                                                                                    
                                                                                                    
                                                                                                    
                                                                                                    
                                                                                                    
                                                                                                    
                                                                                                    
                                                                                                    
                                                                                                    
                                                                                                    
                                                                                                    
                                                                                                    
                                                                                                    
                                                                                                    
                           
<?xpacket end="w"?></metadata>
<defs>
    <style>
      .cls-1 {
        fill: #fff;
        fill-rule: evenodd;
        filter: url(#filter);
      }
    </style>
    <filter id="filter" x="8" y="5.75" width="2805" height="617.25" filterUnits="userSpaceOnUse">
      <feOffset result="offset" dx="0.262" dy="4.993" in="SourceAlpha"/>
      <feGaussianBlur result="blur" stdDeviation="1"/>
      <feFlood result="flood" flood-color="#373737"/>
      <feComposite result="composite" operator="in" in2="blur"/>
      <feBlend result="blend" in="SourceGraphic"/>
    </filter>
  </defs>
  <path id="Will_H_Pacheco" data-name="Will H Pacheco" class="cls-1" d="M148.637,208.408q5.979,47.87,26.736,148.458t23.75,136.112q9.719,117.788,27.668,117.787,8.592,0,11.215-4.857c1.743-3.252,2.623-7.851,2.623-13.838V580.855q0-55.335,15.141-144.524t25.053-213.524q9.914-124.335,15.15-168.835,2.989-11.957,2.993-16.823a11.6,11.6,0,0,0-.75-4.866q8.217-6.729,8.222-13.079a11.585,11.585,0,0,0-4.866-9.913,16.45,16.45,0,0,0-9.715-3.554q-19.824,0-19.816,18.324l0.742,14.58q0,36.286-8.041,103.216t-9.9,98.713q-1.876,31.782-11.785,109.186T231.087,464.189q-2.056,37.023-4.3,45.991l-2.243-1.5q0-81.138-31.783-199.3T160.982,105.951l3.736-10.093q0-13.458-22.81-13.458-10.845,5.228-10.845,14.951l0.751,13.838q0,9.357-2.433,26.365t-3.926,31.222q-1.5,14.209-3.925,60.951t-3.183,56.655a234.414,234.414,0,0,1-4.3,27.3,280.74,280.74,0,0,0-4.676,29.35q-1.125,11.97-6.919,58.9t-5.789,83.2h-1.5Q90.3,444.751,75.538,343.407,60.76,242.069,57.956,212.524T54.22,161.675q-0.932-21.314-2.433-42.256t-4.3-43.758q-2.808-22.8-8.42-36.83T24.3,24.812q-9.162,0-14.77,10.094,8.593,13.458,40.393,283.819Q61.881,420.815,63.943,435.21q2.045,14.39,6.169,36.269t6.539,39.452a299.628,299.628,0,0,1,2.8,34.405q0.375,16.824,1.13,29.161,0.738,7.1,2.424,16.641t5.8,14.58q4.115,5.048,9.162,5.047t9.533-4.857c2.994-3.252,4.5-5.737,4.5-7.48q0-41.5,8.782-154.056T135.92,302.083a285.831,285.831,0,0,0,6.729-55.344q0.377-25.609,3-38.331l0.742-1.492ZM225.3,513.545c0-.742.492-1.121,1.493-1.121Zm282.433,77.4a14.046,14.046,0,0,0,4.866-11.034q0-10.845-22.811-10.845l-22.431.751q-16.836,0-16.831-7.48l0.75-1.863q-2.251-3.365-2.243-21.318l0.742-23.561-5.228-167.9,2.243-182.1q0-34.034-2.243-40.763l3.735-2.243q16.074,0,22.06,4.486l17.583-1.493a14.516,14.516,0,0,0,1.863-5.987q0-23.176-106.572-23.181-4.491,0-11.4,2.994t-6.919,6.359q0,13.1,14.588,13.087l18.325-1.5q15.321,0,22.81,2.243,3.728,36.648,3.736,88.628l-3.736,178.739,5.608,167.523L423.6,570.562l-2.985,2.994H398.544a33.945,33.945,0,0,1-5.8,5.047,9.635,9.635,0,0,0-4.3,8.041q4.477,7.854,20.938,7.85l12.716-.75q2.99,7.479,14.4,7.48t19.627-4.3q8.231-4.3,14.209-4.305l25.433,2.614h0A17.422,17.422,0,0,0,507.731,590.94Zm188.16-3.736a17.483,17.483,0,0,0-10.465-2.061q-57.587,3.751-77.4,3.744,0-54.973.75-80.4V399.674L610.266,109.5q-1.126-6.729-6.359-8.411a12.43,12.43,0,0,0-9.912.75q-4.673,2.433-4.3,5.418l-0.371,11.6q-0.389,11.22-.75,24.3t-1.122,24.122q-0.75,11.025-.75,75.721l-2.994,329.811q0,14.583-1.864,23.181,2.24,17.574,13.088,17.574h23.932l1.492-1.493q22.051,0,68.061-4.857,13.083,0,13.087-9.723Q701.507,590.009,695.891,587.2Zm62.081-98.531a23.983,23.983,0,0,1-2.243-10.845l0.742-5.987-0.742.751,2.243-5.988-1.5-65.437,2.623-232.591q-1.877-25.791-1.872-60.571Q746,103.514,740.58,103.51t-5.418,4.495l-1.5,54.213q-1.5,17.588-1.493,82.27l-2.993,325.324q0,16.086.75,22.81,2.24,17.949,17.945,17.954,10.094,0,18.7.742l1.492-1.493q48.606,0,70.675.751,14.208-2.253,14.209-8.6a15.749,15.749,0,0,0-5.047-11.405q-5.048-5.048-14.77-3.925l-77.4-.751ZM1145.52,294.224l-89.74,5.978a107.489,107.489,0,0,1-3-26.917l0.75-30.29-6.36-155.558a483.918,483.918,0,0,1,3.37-56.845l-10.1-8.222-12.34,5.979q0,162.3,13.84,349.257,1.11,14.208,1.68,65.066t2.05,94.8q1.5,43.949,4.31,52.73,2.79,8.787,12.52,8.783,7.845,0,7.86-11.6,0-44.491-6.55-132.368t-6.54-132.376q16.065-9.344,54.22-9.352l29.17,3.744,4.86-.751q7.47,145.093,7.48,262.881l-0.75,17.574q0,16.822,10.84,16.823,5.235,0,9.53-7.29c2.87-4.866,4.31-8.843,4.31-11.966s-1.12-6.919-3.37-11.406q0-27.291-5.6-194.63-5.625-167.339-5.61-247.731t-3.37-97.979q-3.75-20.188-18.32-20.188a62.959,62.959,0,0,0-1.5,10.465l7.11,259.886Zm264.11,27.3q3.735-4.477,13.83-8.6,31.41-13.083,51.6-71.8,16.08-46.366,16.08-91.242T1464.23,62a100.733,100.733,0,0,0-34.98-33.275q-21.87-12.708-49.16-12.716-12.72,0-19.82,10.844,4.845,19.825,6.73,49.356,0.36,9.356.93,27.676t2.62,73.479q2.055,55.154,2.06,140.408l5.98,124.154-2.99,137.234q0,26.554,9.9,26.546t13.09-6.169q3.18-6.159,3.19-17.392l-6.36-252.028a28.593,28.593,0,0,0,14.21-8.6h0ZM1398.78,38.452q1.86,1.126,15.89,11.405T1436.36,66.5q7.665,6.354,18.33,20.749,10.65,14.4,12.9,30.109,2.235,15.709,2.25,41.876,0,75.161-49.74,124.888c-1,1-2.74,2.873-5.24,5.616a106.563,106.563,0,0,1-7.67,7.661q-3.93,3.559-11.77,4.3l-1.5-1.5-8.97-261.75h13.83Zm301.47,452.464q0.735,5.228,3.91,23.742,3.195,18.505,4.5,27.107t2.61,23q1.305,14.4,1.31,24.312t3.56,14.39q3.54,4.478,19.25,4.486,5.985-3.364,5.99-17.013t-6.36-47.113q-6.36-33.465-6.36-50.668l3.74-10.474q0-15.7-7.11-45.431-7.1-29.724-12.53-60.58-5.415-30.85-14.76-135.922t-9.35-141.728a9.852,9.852,0,0,0-4.48-8.4,15.966,15.966,0,0,0-9.36-3.184q-4.485,4.491-13.83,4.486l-10.47-.751q-3.735,6.729-10.09,66.559-2.625,24.317-4.68,38.521t-11.96,60.2q-9.915,45.993-12.16,59.83t-9.35,57.587q-7.11,43.753-9.73,58.148t-13.08,72.736q-10.47,58.338-20.19,87.118,0,4.866,5.24,8.981,5.22,4.1,10.09,4.106,11.6,0,22.07-53.471,5.6-27.293,7.1-46.743l1.49-15.33a11.343,11.343,0,0,0,.75-2.614,3.885,3.885,0,0,1,1.5-2.614q1.11-.752,14.21-0.751a62.138,62.138,0,0,1,23.93,4.486l20.19-.75q19.815,0,34.41,3.744h0Zm-78.72-101.9q9.525-46.562,49.55-244.375,0.75,44.5,12.52,135.369,11.79,90.872,11.78,138.355v17.574q0,19.451,4.87,34.406h-7.85q-34.035,0-62.08-7.86-18.315-5.227-18.32-13.087Q1612,435.581,1621.53,389.02Zm223.14-101.155a557.508,557.508,0,0,1,5.6-77.4,308.028,308.028,0,0,1,9.92-46.743,106.088,106.088,0,0,1,17.75-34.966q11.6-14.766,27.31-14.77h32.15l10.1-11.215a10.776,10.776,0,0,0-3.36-7.851,6.927,6.927,0,0,0-1.5-.94,13.7,13.7,0,0,0-1.69-.742c-0.37-.121-1-0.311-1.87-0.561s-1.55-.44-2.05-0.561-1.19-.311-2.06-0.561a8.03,8.03,0,0,0-2.06-.38h-30.66q-5.235,3-19.25,8.42t-20.76,10.655q-25.8,20.187-40.76,96.849-7.47,37.761-7.48,139.848v87.506q0,50.106,6.73,90.491,4.125,24.69,13.84,43.2t20.75,26.546a82.789,82.789,0,0,0,24.12,12.147q13.08,4.116,17.96,6.73h25.42a90.835,90.835,0,0,0,18.89-10.655q10.275-7.285,10.28-13.277,0-8.219-11.6-8.222-7.845,6.729-22.62,6.729a70.217,70.217,0,0,1-28.98-6.358q-22.065-9.719-36.27-42.627-12.345-28.042-12.34-92.734l2.99-154.437ZM2127.06,99.024q0,35.16,5.05,105.64t5.05,95.167q0,24.691-6.55,30.109t-21.12,5.418q-61.35,0-61.33-8.981l2.99-186.969q0-44.491-15.33-44.491-5.235,0-9.16,4.676a15.171,15.171,0,0,0-3.93,9.9l5.61,179.119q0,43.377-3.74,50.849,2.25,5.241,2.25,74.789l-1.5,140.227q0,45.993,16.83,45.992,12.705,0,12.71-19.817l-4.49-127.881-2.24-3.373,2.24-96.47,7.85-2.994,48.99,7.851a48.415,48.415,0,0,0,15.34-2.243l11.96,2.994a185.313,185.313,0,0,1,2.62,28.418l-2.62,6.729,1.86,2.994q0,35.147,3.75,205.293,22.8,0,23.55,7.851l4.87-8.6q-4.875-65.817-4.87-138.545t-4.86-191.827q-4.875-119.094-4.86-178.928-13.455-4.478-16.08-4.486t-6.73,3.365c-2.75,2.243-4.11,3.365-4.11,3.365v4.857h0Zm-11.59,227.353h1.49l-1.49-1.492v1.492Zm151.15,284.941h63.19q33.27,0,33.28-13.83,0-10.094-22.43-10.1l-28.42,1.5q-17.97,0-24.69-5.617-10.47-8.217-10.47-84.5l1.5-108.816q0-40.763-1.5-60.58v-2.243l3.75-3.736h3.36l25.05,3.736q4.86,5.991,14.95,5.987t14.03-5.979a24.628,24.628,0,0,0,3.93-13.846q-0.75-13.821-29.91-13.83l-25.81,1.493q-10.845,0-10.84-21.318l2.99-118.909q0-22.051-.75-32.9l3.74-4.486q19.815,0.752,62.07,14.58,14.58-8.592,14.59-14.58-1.125-13.833-48.24-19.075-19.44-2.238-22.06-2.993-3.75-4.853-12.34-4.857-22.065,0-22.06,21.689l2.98,91.612-5.23,230.718,3.74,100.965a90.706,90.706,0,0,1-5.61,31.412l2.62,2.993-0.75,19.437q1.125,16.073,15.34,16.082h0Zm194.13-323.453a557.508,557.508,0,0,1,5.6-77.4,308.028,308.028,0,0,1,9.92-46.743,106.088,106.088,0,0,1,17.75-34.966q11.595-14.766,27.31-14.77h32.15l10.1-11.215a10.776,10.776,0,0,0-3.36-7.851,6.927,6.927,0,0,0-1.5-.94,14.4,14.4,0,0,0-1.69-.742c-0.38-.121-1-0.311-1.87-0.561s-1.55-.44-2.05-0.561-1.19-.311-2.06-0.561a8.03,8.03,0,0,0-2.06-.38h-30.66q-5.235,3-19.25,8.42-14.04,5.422-20.76,10.655-25.8,20.187-40.76,96.849-7.47,37.761-7.48,139.848v87.506q0,50.106,6.73,90.491,4.125,24.69,13.84,43.2t20.75,26.546a82.789,82.789,0,0,0,24.12,12.147q13.08,4.116,17.96,6.73h25.42a90.537,90.537,0,0,0,18.88-10.655q10.275-7.285,10.29-13.277,0-8.219-11.6-8.222-7.845,6.729-22.62,6.729a70.217,70.217,0,0,1-28.98-6.358q-22.065-9.719-36.27-42.627-12.345-28.042-12.34-92.734l2.99-154.437Zm349.7,13.838q0-110.682-32.16-165.28-14.2-26.918-29.54-29.54-6-1.113-20.01-3.735a157.147,157.147,0,0,1-22.06-5.427,37.867,37.867,0,0,1-12.71-6.919,14.856,14.856,0,0,0-9.92-4.115q-22.815,0-34.02,58.337-14.97,80.027-14.96,188.833,0,281.955,89.75,281.947a51.911,51.911,0,0,0,30.29-9.344q55.335-37.4,55.34-209.779l-1.5-91.242Zm-147.71-40.384q1.5-7.479,6.35-75.721,4.875-68.25,11.23-68.25h32.15q26.925,0,45.62,24.682t18.71,57.958l-1.51,3.744,3,5.979,8.6,180.982q0,32.172-2.99,73.3a338.885,338.885,0,0,1-6.36,46.561,379.8,379.8,0,0,1-11.22,40.756q-6.72,20.005-18.13,31.221t-26.56,11.216q-15.135,0-26.92-18.324t-17.76-43Q2660.5,466.6,2660.5,393.687l-1.5-60.572Z"/>
</svg>
