<svg xmlns="http://www.w3.org/2000/svg" xmlns:xlink="http://www.w3.org/1999/xlink" width="4073" height="611" viewBox="0 0 4073 611">
  <metadata><?xpacket begin="﻿" id="W5M0MpCehiHzreSzNTczkc9d"?>
<x:xmpmeta xmlns:x="adobe:ns:meta/" x:xmptk="Adobe XMP Core 5.6-c142 79.160924, 2017/07/13-01:06:39        ">
   <rdf:RDF xmlns:rdf="http://www.w3.org/1999/02/22-rdf-syntax-ns#">
      <rdf:Description rdf:about=""/>
   </rdf:RDF>
</x:xmpmeta>
                                                                                                    
                                                                                                    
                                                                                                    
                                                                                                    
                                                                                                    
                                                                                                    
                                                                                                    
                                                                                                    
                                                                                                    
                                                                                                    
                                                                                                    
                                                                                                    
                                                                                                    
                                                                                                    
                                                                                                    
                                                                                                    
                                                                                                    
                                                                                                    
                                                                                                    
                                                                                                    
                           
<?xpacket end="w"?></metadata>
<defs>
    <style>
      .cls-1 {
        fill: #fff;
        fill-rule: evenodd;
        filter: url(#filter);
      }
    </style>
    <filter id="filter" x="7" y="3.313" width="4049" height="599.688" filterUnits="userSpaceOnUse">
      <feOffset result="offset" dx="0.262" dy="4.993" in="SourceAlpha"/>
      <feGaussianBlur result="blur" stdDeviation="1"/>
      <feFlood result="flood" flood-color="#373737"/>
      <feComposite result="composite" operator="in" in2="blur"/>
      <feBlend result="blend" in="SourceGraphic"/>
    </filter>
  </defs>
  <path id="Will_H_Pacheco" data-name="Will H Pacheco" class="cls-1" d="M137.923,29.08a525.153,525.153,0,0,1-69.582,7.3L8.364,595.362l163.769-29.217L249.8,280.889h10l-34.6,303.705,177.615-29.988q24.6-109.948,86.115-352.914,26.13-103.029,56.89-192.223-26.914,5.388-91.49,13.837-24.614,3.087-51.515,6.918L328.221,368.539H313.613q6.147-57.661,11.53-123.022,3.074-36.135,6.147-73.423t6.155-68.438q3.074-31.132,4.994-53.049t3.468-28.835q-44.6,10.005-83.046,10h-6.919q-9.233,29.988-24.6,88.421-7.69,26.143-28.454,96.493T159.831,368.539h-12.3Q202.888,22.543,202.893,21A633.244,633.244,0,0,0,137.923,29.08ZM557.507,40.992q-20,115.336-67.667,355.992-20.755,105.345-45.359,194.529,1.543-.759,54.583-7.681,53.06-6.919,74.585-6.928Q592.875,467.728,680.528,21.772Zm214.182,343.69q11.922-69.2,83.428-372.135L716.715,31q-21.527,106.888-51.9,263.73-30.373,156.859-48.827,299.093a459.515,459.515,0,0,1,47.674-12.3,892.343,892.343,0,0,1,160.7-14.609L848.2,567.68q-0.772-3.073-1.925-11.921t-4.231-27.673q-3.073-18.84-4.612-48.827-52.287,0-81.5,2.306Q759.773,453.891,771.689,384.682Zm233.051,0q11.925-69.2,83.43-372.135L949.766,31q-21.527,106.888-51.9,263.73Q867.5,451.585,849.042,593.819a459.515,459.515,0,0,1,47.674-12.3,892.387,892.387,0,0,1,160.7-14.609l23.83,0.772q-0.78-3.073-1.93-11.921t-4.23-27.673q-3.075-18.84-4.61-48.827-52.29,0-81.5,2.306Q992.824,453.891,1004.74,384.682Zm354.98,183.77q26.13-131.475,43.82-229.13l76.89-6.918q-5.385,29.217-13.45,69.973-8.085,40.75-16.15,82.265-8.085,41.525-18.07,88.422l123.02-13.846q14.61-104.559,32.29-204.516,36.135-222.21,73.82-345.233L1648.81,11q-13.065.772-47.66,3.468t-65.36,8.071q-13.845,55.36-22.68,108.024T1493.5,238.6l-77.66,9.224q19.215-103.029,49.98-232.207l-127.63,9.233q-31.53,211.448-99.96,568.97Zm507.63-2.307q16.9-114.564,31.52-179.157h8.46q37.68,0,73.04-18.831a210.575,210.575,0,0,0,62.28-50.743,259.072,259.072,0,0,0,43.05-73.05,230.468,230.468,0,0,0,16.16-84.962q0-68.425-26.91-104.573a110.91,110.91,0,0,0-39.6-31.9Q2011.125,11,1968.84,11T1841.98,36.38q-30,197.612-110.72,556.676Zm112.26-444.8q13.065,14.994,13.07,44.206,0,52.287-26.15,93.806-23.835,37.677-51.51,44.6,16.14-86.106,36.14-197.606Q1966.52,106.344,1979.61,121.342Zm261.51,336.39q-6.15,59.2-14.61,133.018,19.215-3.073,42.67-6.918t45.37-6.928q21.915-3.073,44.98-6.918,6.915-174.528,16.92-381.368,4.59-103.8,11.53-179.92-74.58,14.608-216.82,24.6-10.005,35.376-22.69,78.044t-26.14,88.421q-13.47,45.755-27.3,92.271-13.845,46.514-35.75,118.791t-53.43,176.843q24.6-3.073,47.66-5.765t46.52-5.765q23.445-3.074,41.14-5.384l31.52-113.026h68.43Zm16.92-344.461,12.3-.772-5.38,68.429q-6.93,70.74-13.07,153.01-1.545,14.609-2.7,25.758t-1.15,15.761l-56.89,3.85Zm253.08,308.707q0-39.594,21.53-104.182,9.21-29.217,21.52-58.052a464.679,464.679,0,0,1,25.76-51.9q13.455-23.07,27.29-37.679t26.53-14.617q12.69,0,21.92,19.23L2758.7,147.1a71.326,71.326,0,0,0,.77-10v-10q0-49.971-26.91-80.731-27.69-29.988-66.9-29.988-60.75,0-111.88,35.372t-88.03,92.652q-36.9,57.289-57.28,129.559A549.643,549.643,0,0,0,2388.1,423.9q0,77.658,32.28,125.319,30.765,44.6,79.97,44.6,52.29,0,102.26-42.282,56.13-47.67,90.73-128.406l-89.96-36.143q-6.15,26.156-27.68,50.752-21.525,23.841-40.75,23.832Q2511.115,461.572,2511.12,421.978Zm299.97,146.474q26.145-131.475,43.82-229.13l76.89-6.918q-5.385,29.217-13.45,69.973-8.085,40.75-16.15,82.265-8.085,41.525-18.07,88.422l123.02-13.846q14.61-104.559,32.29-204.516,36.135-222.21,73.82-345.233L3100.19,11q-13.08.772-47.67,3.468-34.605,2.688-65.35,8.071-13.86,55.36-22.69,108.024-8.85,52.671-19.6,108.032l-77.67,9.224q12.3-64.579,49.98-224.517-53.82,0-127.63-6.147-17.7,172.24-99.95,576.66Zm480.67-14.609,7.69-89.964-114.56,18.457,26.91-145.32q23.82-.771,43.05-1.534,19.215-.773,36.91-1.153t26.14-1.162q3.84-22.3,6.53-43.435t5.77-43.443q-8.46.771-36.91,1.534t-70.73,3.078l27.68-141.48h53.05q39.975,0,63.05-2.306,2.31-12.293,6.15-28.445t7.69-32.676q3.84-16.524,9.22-34.219L3140.29,33.3,3037.26,593.056ZM3448.7,421.978q0-39.594,21.53-104.182,9.225-29.217,21.53-58.052a464.7,464.7,0,0,1,25.75-51.9q13.455-23.07,27.3-37.679t26.52-14.617q12.705,0,21.92,19.23L3696.28,147.1a69.846,69.846,0,0,0,.77-10v-10q0-49.971-26.91-80.731-27.69-29.988-66.89-29.988-60.75,0-111.88,35.372t-88.03,92.652q-36.915,57.289-57.28,129.559A549.649,549.649,0,0,0,3325.68,423.9q0,77.658,32.29,125.319,30.75,44.6,79.97,44.6,52.275,0,102.25-42.282,56.13-47.67,90.73-128.406l-89.95-36.143q-6.15,26.156-27.69,50.752-21.525,23.841-40.74,23.832Q3448.69,461.572,3448.7,421.978Zm486.42-116.1a326.227,326.227,0,0,1-28.06,75.738q-18.465,35.363-45.75,59.586t-62.66,24.223a30.006,30.006,0,0,1-17.68-5.384q-26.145-15.38-26.14-46.14,0-46.127,16.91-98.417,21.525-63.808,51.52-100.724,37.665-46.127,84.57-46.131,36.9,0,36.9,63.817Q3944.73,265.518,3935.12,305.875ZM4030.09,55.6q-30-52.286-94.58-52.286-78.435,0-149.93,72.279-66.12,67.667-106.88,169.152-40.755,101.5-40.75,189.145,0,80.745,33.83,123.022,30.765,38.449,83.81,38.45,63.045,0,131.48-53.821,33.06-26.144,63.43-63.817t53.44-85.344q23.07-47.668,36.52-104.573,13.455-56.889,13.46-103.8,0-86.106-23.83-128.406h0Z"/>
</svg>
